<?xml version="1.0" standalone="yes"?>

<svg version="1.1" viewBox="0.0 0.0 800.0 600.0" fill="none" stroke="none" stroke-linecap="square" stroke-miterlimit="10" xmlns="http://www.w3.org/2000/svg" xmlns:xlink="http://www.w3.org/1999/xlink"><clipPath id="p.0"><path d="m0 0l800.0 0l0 600.0l-800.0 0l0 -600.0z" clip-rule="nonzero"></path></clipPath><g clip-path="url(#p.0)"><path fill="#000000" fill-opacity="0.0" d="m0 0l800.0 0l0 600.0l-800.0 0z" fill-rule="evenodd"></path><path fill="#ffffff" d="m130.21785 175.62466l174.29921 0l0 67.11812l-174.29921 0z" fill-rule="evenodd"></path><path stroke="#000000" stroke-width="1.0" stroke-linejoin="round" stroke-linecap="butt" d="m130.21785 175.62466l174.29921 0l0 67.11812l-174.29921 0z" fill-rule="evenodd"></path><path fill="#ffffff" d="m376.60104 175.62466l174.29922 0l0 67.11812l-174.29922 0z" fill-rule="evenodd"></path><path stroke="#000000" stroke-width="1.0" stroke-linejoin="round" stroke-linecap="butt" d="m376.60104 175.62466l174.29922 0l0 67.11812l-174.29922 0z" fill-rule="evenodd"></path><path fill="#000000" fill-opacity="0.0" d="m130.21785 168.11023l113.19685 0l0 58.110245l-113.19685 0z" fill-rule="evenodd"></path><path fill="#000000" d="m139.1866 195.03023l5.234375 -13.59375l1.9375 0l5.5625 13.59375l-2.046875 0l-1.59375 -4.125l-5.6875 0l-1.484375 4.125l-1.921875 0zm3.921875 -5.578125l4.609375 0l-1.40625 -3.78125q-0.65625 -1.703125 -0.96875 -2.8125q-0.265625 1.3125 -0.734375 2.59375l-1.5 4.0zm9.943573 5.578125l0 -13.59375l5.109375 0q1.546875 0 2.484375 0.40625q0.953125 0.40625 1.484375 1.265625q0.53125 0.859375 0.53125 1.796875q0 0.875 -0.46875 1.65625q-0.46875 0.765625 -1.4375 1.234375q1.234375 0.359375 1.890625 1.234375q0.671875 0.875 0.671875 2.0625q0 0.953125 -0.40625 1.78125q-0.390625 0.8125 -0.984375 1.265625q-0.59375 0.4375 -1.5 0.671875q-0.890625 0.21875 -2.1875 0.21875l-5.1875 0zm1.796875 -7.890625l2.9375 0q1.203125 0 1.71875 -0.15625q0.6875 -0.203125 1.03125 -0.671875q0.359375 -0.46875 0.359375 -1.1875q0 -0.671875 -0.328125 -1.1875q-0.328125 -0.515625 -0.9375 -0.703125q-0.59375 -0.203125 -2.0625 -0.203125l-2.71875 0l0 4.109375zm0 6.28125l3.390625 0q0.875 0 1.21875 -0.0625q0.625 -0.109375 1.046875 -0.359375q0.421875 -0.265625 0.6875 -0.765625q0.265625 -0.5 0.265625 -1.140625q0 -0.765625 -0.390625 -1.328125q-0.390625 -0.5625 -1.078125 -0.78125q-0.6875 -0.234375 -1.984375 -0.234375l-3.15625 0l0 4.671875zm20.427948 -3.15625l1.796875 0.453125q-0.5625 2.21875 -2.03125 3.390625q-1.46875 1.15625 -3.59375 1.15625q-2.203125 0 -3.578125 -0.890625q-1.375 -0.90625 -2.09375 -2.59375q-0.71875 -1.703125 -0.71875 -3.65625q0 -2.125 0.796875 -3.703125q0.8125 -1.578125 2.3125 -2.390625q1.5 -0.828125 3.296875 -0.828125q2.046875 0 3.4375 1.046875q1.390625 1.03125 1.9375 2.90625l-1.765625 0.421875q-0.46875 -1.484375 -1.375 -2.15625q-0.90625 -0.6875 -2.265625 -0.6875q-1.5625 0 -2.625 0.75q-1.046875 0.75 -1.484375 2.03125q-0.421875 1.265625 -0.421875 2.609375q0 1.734375 0.5 3.03125q0.515625 1.28125 1.578125 1.921875q1.078125 0.640625 2.3125 0.640625q1.515625 0 2.5625 -0.859375q1.046875 -0.875 1.421875 -2.59375zm3.7698212 4.765625l0 -13.59375l4.6875 0q1.578125 0 2.421875 0.1875q1.15625 0.265625 1.984375 0.96875q1.078125 0.921875 1.609375 2.34375q0.53125 1.40625 0.53125 3.21875q0 1.546875 -0.359375 2.75q-0.359375 1.1875 -0.921875 1.984375q-0.5625 0.78125 -1.234375 1.234375q-0.671875 0.4375 -1.625 0.671875q-0.953125 0.234375 -2.1875 0.234375l-4.90625 0zm1.796875 -1.609375l2.90625 0q1.34375 0 2.109375 -0.25q0.765625 -0.25 1.21875 -0.703125q0.640625 -0.640625 1.0 -1.71875q0.359375 -1.078125 0.359375 -2.625q0 -2.125 -0.703125 -3.265625q-0.703125 -1.15625 -1.703125 -1.546875q-0.71875 -0.28125 -2.328125 -0.28125l-2.859375 0l0 10.390625zm11.707321 1.609375l0 -13.59375l9.84375 0l0 1.59375l-8.046875 0l0 4.171875l7.53125 0l0 1.59375l-7.53125 0l0 4.625l8.359375 0l0 1.609375l-10.15625 0zm12.506073 0l0 -13.59375l9.171875 0l0 1.59375l-7.375 0l0 4.21875l6.375 0l0 1.609375l-6.375 0l0 6.171875l-1.796875 0z" fill-rule="nonzero"></path><path fill="#000000" d="m146.29597 217.03023l-1.671875 0l0 -10.640625q-0.59375 0.578125 -1.578125 1.15625q-0.984375 0.5625 -1.765625 0.859375l0 -1.625q1.40625 -0.65625 2.453125 -1.59375q1.046875 -0.9375 1.484375 -1.8125l1.078125 0l0 13.65625zm12.860092 -1.609375l0 1.609375l-8.984375 0q-0.015625 -0.609375 0.1875 -1.15625q0.34375 -0.921875 1.09375 -1.8125q0.765625 -0.890625 2.1875 -2.0625q2.21875 -1.8125 3.0 -2.875q0.78125 -1.0625 0.78125 -2.015625q0 -0.984375 -0.71875 -1.671875q-0.703125 -0.6875 -1.84375 -0.6875q-1.203125 0 -1.9375 0.734375q-0.71875 0.71875 -0.71875 2.0l-1.71875 -0.171875q0.171875 -1.921875 1.328125 -2.921875q1.15625 -1.015625 3.09375 -1.015625q1.953125 0 3.09375 1.09375q1.140625 1.078125 1.140625 2.6875q0 0.8125 -0.34375 1.609375q-0.328125 0.78125 -1.109375 1.65625q-0.765625 0.859375 -2.5625 2.390625q-1.5 1.265625 -1.9375 1.71875q-0.421875 0.4375 -0.703125 0.890625l6.671875 0zm1.6100922 -1.984375l1.671875 -0.21875q0.28125 1.421875 0.96875 2.046875q0.703125 0.625 1.6875 0.625q1.1875 0 2.0 -0.8125q0.8125 -0.828125 0.8125 -2.03125q0 -1.140625 -0.765625 -1.890625q-0.75 -0.75 -1.90625 -0.75q-0.46875 0 -1.171875 0.1875l0.1875 -1.46875q0.15625 0.015625 0.265625 0.015625q1.0625 0 1.90625 -0.546875q0.859375 -0.5625 0.859375 -1.71875q0 -0.921875 -0.625 -1.515625q-0.609375 -0.609375 -1.59375 -0.609375q-0.96875 0 -1.625 0.609375q-0.640625 0.609375 -0.828125 1.84375l-1.671875 -0.296875q0.296875 -1.6875 1.375 -2.609375q1.09375 -0.921875 2.71875 -0.921875q1.109375 0 2.046875 0.484375q0.9375 0.46875 1.421875 1.296875q0.5 0.828125 0.5 1.75q0 0.890625 -0.46875 1.609375q-0.46875 0.71875 -1.40625 1.15625q1.21875 0.265625 1.875 1.15625q0.671875 0.875 0.671875 2.1875q0 1.78125 -1.296875 3.015625q-1.296875 1.234375 -3.28125 1.234375q-1.796875 0 -2.984375 -1.0625q-1.171875 -1.0625 -1.34375 -2.765625zm15.719467 3.59375l0 -3.25l-5.90625 0l0 -1.53125l6.21875 -8.8125l1.359375 0l0 8.8125l1.84375 0l0 1.53125l-1.84375 0l0 3.25l-1.671875 0zm0 -4.78125l0 -6.140625l-4.25 6.140625l4.25 0zm5.016342 1.21875l1.765625 -0.15625q0.1875 1.28125 0.890625 1.9375q0.71875 0.640625 1.71875 0.640625q1.203125 0 2.03125 -0.90625q0.84375 -0.90625 0.84375 -2.421875q0 -1.421875 -0.8125 -2.25q-0.796875 -0.828125 -2.09375 -0.828125q-0.796875 0 -1.453125 0.375q-0.640625 0.359375 -1.015625 0.953125l-1.578125 -0.203125l1.328125 -7.0l6.765625 0l0 1.609375l-5.4375 0l-0.734375 3.640625q1.234375 -0.84375 2.578125 -0.84375q1.78125 0 3.0 1.234375q1.234375 1.234375 1.234375 3.171875q0 1.84375 -1.078125 3.1875q-1.3125 1.65625 -3.578125 1.65625q-1.859375 0 -3.03125 -1.03125q-1.171875 -1.046875 -1.34375 -2.765625z" fill-rule="nonzero"></path><path fill="#000000" fill-opacity="0.0" d="m437.7034 233.73491l113.19687 0l0 -58.110245l-113.19687 0z" fill-rule="evenodd"></path><path fill="#000000" d="m534.82214 206.81491l1.671875 0l0 10.640625q0.59375 -0.578125 1.578125 -1.15625q0.984375 -0.5625 1.765625 -0.859375l0 1.625q-1.40625 0.65625 -2.453125 1.59375q-1.046875 0.9375 -1.484375 1.8125l-1.078125 0l0 -13.65625zm-12.860107 1.609375l0 -1.609375l8.984375 0q0.015625 0.609375 -0.1875 1.15625q-0.34375 0.921875 -1.09375 1.8125q-0.765625 0.890625 -2.1875 2.0625q-2.21875 1.8125 -3.0 2.875q-0.78125 1.0625 -0.78125 2.015625q0 0.984375 0.71875 1.671875q0.703125 0.6875 1.84375 0.6875q1.203125 0 1.9375 -0.734375q0.71875 -0.71875 0.71875 -2.0l1.71875 0.171875q-0.171875 1.921875 -1.328125 2.921875q-1.15625 1.015625 -3.09375 1.015625q-1.953125 0 -3.09375 -1.09375q-1.140625 -1.078125 -1.140625 -2.6875q0 -0.8125 0.34375 -1.609375q0.328125 -0.78125 1.109375 -1.65625q0.765625 -0.859375 2.5625 -2.390625q1.5 -1.265625 1.9375 -1.71875q0.421875 -0.4375 0.703125 -0.890625l-6.671875 0zm-1.6101074 1.984375l-1.671875 0.21875q-0.28125 -1.421875 -0.96875 -2.046875q-0.703125 -0.625 -1.6875 -0.625q-1.1875 0 -2.0 0.8125q-0.8125 0.828125 -0.8125 2.03125q0 1.140625 0.765625 1.890625q0.75 0.75 1.90625 0.75q0.46875 0 1.171875 -0.1875l-0.1875 1.46875q-0.15625 -0.015625 -0.265625 -0.015625q-1.0625 0 -1.90625 0.546875q-0.859375 0.5625 -0.859375 1.71875q0 0.921875 0.625 1.515625q0.609375 0.609375 1.59375 0.609375q0.96875 0 1.625 -0.609375q0.640625 -0.609375 0.828125 -1.84375l1.671875 0.296875q-0.296875 1.6875 -1.375 2.609375q-1.09375 0.921875 -2.71875 0.921875q-1.109375 0 -2.046875 -0.484375q-0.9375 -0.46875 -1.421875 -1.296875q-0.5 -0.828125 -0.5 -1.75q0 -0.890625 0.46875 -1.609375q0.46875 -0.71875 1.40625 -1.15625q-1.21875 -0.265625 -1.875 -1.15625q-0.6718445 -0.875 -0.6718445 -2.1875q0 -1.78125 1.2968445 -3.015625q1.296875 -1.234375 3.28125 -1.234375q1.796875 0 2.984375 1.0625q1.171875 1.0625 1.34375 2.765625zm-15.719452 -3.59375l0 3.25l5.90625 0l0 1.53125l-6.21875 8.8125l-1.359375 0l0 -8.8125l-1.84375 0l0 -1.53125l1.84375 0l0 -3.25l1.671875 0zm0 4.78125l0 6.140625l4.25 -6.140625l-4.25 0zm-5.016327 -1.21875l-1.765625 0.15625q-0.1875 -1.28125 -0.890625 -1.9375q-0.71875 -0.640625 -1.71875 -0.640625q-1.203125 0 -2.03125 0.90625q-0.84375 0.90625 -0.84375 2.421875q0 1.421875 0.8125 2.25q0.796875 0.828125 2.09375 0.828125q0.796875 0 1.453125 -0.375q0.640625 -0.359375 1.015625 -0.953125l1.578125 0.203125l-1.328125 7.0l-6.765625 0l0 -1.609375l5.4375 0l0.734375 -3.640625q-1.234375 0.84375 -2.578125 0.84375q-1.78125 0 -3.0 -1.234375q-1.234375 -1.234375 -1.234375 -3.171875q0 -1.84375 1.078125 -3.1875q1.3125 -1.65625 3.578125 -1.65625q1.859375 0 3.03125 1.03125q1.171875 1.046875 1.34375 2.765625z" fill-rule="nonzero"></path><path fill="#000000" d="m541.9315 184.81491l-5.234375 13.59375l-1.9375 0l-5.5625 -13.59375l2.046875 0l1.59375 4.125l5.6875 0l1.484375 -4.125l1.921875 0zm-3.921875 5.578125l-4.609375 0l1.40625 3.78125q0.65625 1.703125 0.96875 2.8125q0.265625 -1.3125 0.734375 -2.59375l1.5 -4.0zm-9.9436035 -5.578125l0 13.59375l-5.109375 0q-1.546875 0 -2.484375 -0.40625q-0.953125 -0.40625 -1.484375 -1.265625q-0.53125 -0.859375 -0.53125 -1.796875q0 -0.875 0.46875 -1.65625q0.46875 -0.765625 1.4375 -1.234375q-1.234375 -0.359375 -1.890625 -1.234375q-0.671875 -0.875 -0.671875 -2.0625q0 -0.953125 0.40625 -1.78125q0.390625 -0.8125 0.984375 -1.265625q0.59375 -0.4375 1.5 -0.671875q0.890625 -0.21875 2.1875 -0.21875l5.1875 0zm-1.796875 7.890625l-2.9375 0q-1.203125 0 -1.71875 0.15625q-0.6875 0.203125 -1.03125 0.671875q-0.359375 0.46875 -0.359375 1.1875q0 0.671875 0.328125 1.1875q0.328125 0.515625 0.9375 0.703125q0.59375 0.203125 2.0625 0.203125l2.71875 0l0 -4.109375zm0 -6.28125l-3.390625 0q-0.875 0 -1.21875 0.0625q-0.625 0.109375 -1.046875 0.359375q-0.421875 0.265625 -0.6875 0.765625q-0.265625 0.5 -0.265625 1.140625q0 0.765625 0.390625 1.328125q0.390625 0.5625 1.078125 0.78125q0.6875 0.234375 1.984375 0.234375l3.15625 0l0 -4.671875zm-20.427917 3.15625l-1.796875 -0.453125q0.5625 -2.21875 2.03125 -3.390625q1.46875 -1.15625 3.59375 -1.15625q2.203125 0 3.578125 0.890625q1.375 0.90625 2.09375 2.59375q0.71875 1.703125 0.71875 3.65625q0 2.125 -0.796875 3.703125q-0.8125 1.578125 -2.3125 2.390625q-1.5 0.828125 -3.296875 0.828125q-2.046875 0 -3.4375 -1.046875q-1.390625 -1.03125 -1.9375 -2.90625l1.765625 -0.421875q0.46875 1.484375 1.375 2.15625q0.90625 0.6875 2.265625 0.6875q1.5625 0 2.625 -0.75q1.046875 -0.75 1.484375 -2.03125q0.421875 -1.265625 0.421875 -2.609375q0 -1.734375 -0.5 -3.03125q-0.515625 -1.28125 -1.578125 -1.921875q-1.078125 -0.640625 -2.3125 -0.640625q-1.515625 0 -2.5625 0.859375q-1.046875 0.875 -1.421875 2.59375zm-3.7698364 -4.765625l0 13.59375l-4.6875 0q-1.578125 0 -2.421875 -0.1875q-1.15625 -0.265625 -1.984375 -0.96875q-1.078125 -0.921875 -1.609375 -2.34375q-0.53125 -1.40625 -0.53125 -3.21875q0 -1.546875 0.359375 -2.75q0.359375 -1.1875 0.921875 -1.984375q0.5625 -0.78125 1.234375 -1.234375q0.671875 -0.4375 1.625 -0.671875q0.953125 -0.234375 2.1875 -0.234375l4.90625 0zm-1.796875 1.609375l-2.90625 0q-1.34375 0 -2.109375 0.25q-0.765625 0.25 -1.21875 0.703125q-0.640625 0.640625 -1.0 1.71875q-0.359375 1.078125 -0.359375 2.625q0 2.125 0.703125 3.265625q0.703125 1.15625 1.703125 1.546875q0.71875 0.28125 2.328125 0.28125l2.859375 0l0 -10.390625zm-11.707306 -1.609375l0 13.59375l-9.84375 0l0 -1.59375l8.046875 0l0 -4.171875l-7.53125 0l0 -1.59375l7.53125 0l0 -4.625l-8.359375 0l0 -1.609375l10.15625 0zm-12.506073 0l0 13.59375l-9.171875 0l0 -1.59375l7.375 0l0 -4.21875l-6.375 0l0 -1.609375l6.375 0l0 -6.171875l1.796875 0z" fill-rule="nonzero"></path><path fill="#000000" fill-opacity="0.0" d="m114.2021 141.56693l206.3307 0l0 43.086624l-206.3307 0z" fill-rule="evenodd"></path><path fill="#000000" d="m131.40523 153.91255l1.421875 0l0 6.203125q0 1.609375 -0.375 2.5625q-0.359375 0.953125 -1.3125 1.5625q-0.953125 0.59375 -2.515625 0.59375q-1.5 0 -2.46875 -0.515625q-0.953125 -0.53125 -1.375 -1.515625q-0.40625 -0.984375 -0.40625 -2.6875l0 -6.203125l1.421875 0l0 6.1875q0 1.40625 0.265625 2.078125q0.265625 0.65625 0.890625 1.015625q0.640625 0.359375 1.546875 0.359375q1.578125 0 2.234375 -0.703125q0.671875 -0.71875 0.671875 -2.75l0 -6.1875zm3.3655243 13.71875l0 -10.765625l1.203125 0l0 1.015625q0.421875 -0.59375 0.953125 -0.890625q0.546875 -0.296875 1.3125 -0.296875q0.984375 0 1.75 0.515625q0.765625 0.515625 1.140625 1.453125q0.390625 0.921875 0.390625 2.03125q0 1.203125 -0.421875 2.15625q-0.421875 0.953125 -1.25 1.46875q-0.8125 0.5 -1.71875 0.5q-0.65625 0 -1.1875 -0.265625q-0.515625 -0.28125 -0.84375 -0.71875l0 3.796875l-1.328125 0zm1.203125 -6.828125q0 1.5 0.609375 2.21875q0.609375 0.71875 1.46875 0.71875q0.875 0 1.5 -0.734375q0.625 -0.75 0.625 -2.3125q0 -1.484375 -0.609375 -2.21875q-0.609375 -0.75 -1.453125 -0.75q-0.84375 0 -1.5 0.796875q-0.640625 0.78125 -0.640625 2.28125zm6.432358 1.515625l1.296875 -0.203125q0.109375 0.78125 0.609375 1.203125q0.5 0.421875 1.40625 0.421875q0.90625 0 1.34375 -0.359375q0.4375 -0.375 0.4375 -0.875q0 -0.453125 -0.390625 -0.703125q-0.265625 -0.1875 -1.34375 -0.453125q-1.453125 -0.359375 -2.015625 -0.625q-0.546875 -0.28125 -0.84375 -0.75q-0.28125 -0.46875 -0.28125 -1.046875q0 -0.515625 0.234375 -0.953125q0.234375 -0.453125 0.640625 -0.734375q0.3125 -0.234375 0.84375 -0.390625q0.53125 -0.15625 1.140625 -0.15625q0.90625 0 1.59375 0.265625q0.703125 0.265625 1.03125 0.71875q0.328125 0.4375 0.453125 1.203125l-1.28125 0.171875q-0.09375 -0.609375 -0.515625 -0.9375q-0.421875 -0.34375 -1.1875 -0.34375q-0.90625 0 -1.296875 0.3125q-0.390625 0.296875 -0.390625 0.703125q0 0.25 0.15625 0.453125q0.171875 0.21875 0.515625 0.359375q0.1875 0.0625 1.15625 0.328125q1.40625 0.375 1.953125 0.609375q0.5625 0.234375 0.875 0.703125q0.3125 0.453125 0.3125 1.125q0 0.65625 -0.390625 1.234375q-0.375 0.578125 -1.109375 0.90625q-0.71875 0.3125 -1.640625 0.3125q-1.515625 0 -2.3125 -0.625q-0.78125 -0.625 -1.0 -1.875zm7.859375 -6.890625l0 -1.515625l1.3125 0l0 1.515625l-1.3125 0zm0 9.21875l0 -7.78125l1.3125 0l0 7.78125l-1.3125 0zm8.287399 0l0 -0.984375q-0.734375 1.15625 -2.171875 1.15625q-0.921875 0 -1.703125 -0.5q-0.78125 -0.515625 -1.21875 -1.4375q-0.421875 -0.921875 -0.421875 -2.109375q0 -1.171875 0.390625 -2.109375q0.390625 -0.953125 1.15625 -1.453125q0.78125 -0.515625 1.734375 -0.515625q0.703125 0 1.25 0.296875q0.5625 0.296875 0.90625 0.765625l0 -3.84375l1.3125 0l0 10.734375l-1.234375 0zm-4.15625 -3.875q0 1.484375 0.625 2.234375q0.625 0.734375 1.484375 0.734375q0.859375 0 1.46875 -0.703125q0.609375 -0.71875 0.609375 -2.15625q0 -1.609375 -0.625 -2.34375q-0.609375 -0.75 -1.515625 -0.75q-0.875 0 -1.46875 0.71875q-0.578125 0.71875 -0.578125 2.265625zm12.588608 1.375l1.359375 0.15625q-0.3125 1.203125 -1.1875 1.859375q-0.875 0.65625 -2.234375 0.65625q-1.703125 0 -2.703125 -1.046875q-1.0 -1.046875 -1.0 -2.953125q0 -1.953125 1.015625 -3.03125q1.015625 -1.09375 2.625 -1.09375q1.5625 0 2.546875 1.0625q0.984375 1.0625 0.984375 2.984375q0 0.125 0 0.359375l-5.8125 0q0.078125 1.28125 0.71875 1.96875q0.65625 0.671875 1.640625 0.671875q0.71875 0 1.234375 -0.375q0.515625 -0.390625 0.8125 -1.21875zm-4.328125 -2.140625l4.34375 0q-0.09375 -0.984375 -0.5 -1.46875q-0.625 -0.765625 -1.625 -0.765625q-0.921875 0 -1.546875 0.609375q-0.609375 0.609375 -0.671875 1.625zm6.635483 1.421875l0 -1.328125l4.0625 0l0 1.328125l-4.0625 0zm5.5681458 3.21875l0 -10.734375l3.703125 0q1.25 0 1.90625 0.15625q0.921875 0.203125 1.578125 0.765625q0.84375 0.71875 1.265625 1.84375q0.421875 1.109375 0.421875 2.546875q0 1.21875 -0.28125 2.171875q-0.28125 0.9375 -0.734375 1.5625q-0.453125 0.609375 -0.984375 0.96875q-0.53125 0.359375 -1.28125 0.546875q-0.75 0.171875 -1.71875 0.171875l-3.875 0zm1.421875 -1.265625l2.296875 0q1.0625 0 1.65625 -0.1875q0.609375 -0.203125 0.96875 -0.5625q0.5 -0.515625 0.78125 -1.359375q0.28125 -0.859375 0.28125 -2.078125q0 -1.6875 -0.546875 -2.578125q-0.546875 -0.90625 -1.34375 -1.21875q-0.578125 -0.21875 -1.84375 -0.21875l-2.25 0l0 8.203125zm8.506149 -2.625q0 -2.15625 1.203125 -3.203125q1.0 -0.859375 2.4375 -0.859375q1.609375 0 2.625 1.046875q1.015625 1.046875 1.015625 2.90625q0 1.5 -0.453125 2.359375q-0.4375 0.859375 -1.3125 1.34375q-0.859375 0.46875 -1.875 0.46875q-1.625 0 -2.640625 -1.046875q-1.0 -1.046875 -1.0 -3.015625zm1.359375 0q0 1.5 0.640625 2.25q0.65625 0.734375 1.640625 0.734375q0.984375 0 1.640625 -0.75q0.65625 -0.75 0.65625 -2.28125q0 -1.4375 -0.65625 -2.171875q-0.65625 -0.75 -1.640625 -0.75q-0.984375 0 -1.640625 0.734375q-0.640625 0.734375 -0.640625 2.234375zm8.713608 3.890625l-2.375 -7.78125l1.359375 0l1.234375 4.5l0.46875 1.65625q0.03125 -0.125 0.40625 -1.59375l1.234375 -4.5625l1.34375 0l1.171875 4.515625l0.390625 1.484375l0.4375 -1.5l1.34375 -4.5l1.28125 0l-2.4375 7.78125l-1.359375 0l-1.25 -4.65625l-0.296875 -1.328125l-1.578125 5.984375l-1.375 0zm9.146774 0l0 -7.78125l1.1875 0l0 1.109375q0.859375 -1.28125 2.484375 -1.28125q0.703125 0 1.28125 0.25q0.59375 0.25 0.890625 0.671875q0.296875 0.40625 0.40625 0.96875q0.078125 0.359375 0.078125 1.28125l0 4.78125l-1.328125 0l0 -4.734375q0 -0.796875 -0.15625 -1.1875q-0.140625 -0.40625 -0.53125 -0.640625q-0.390625 -0.25 -0.921875 -0.25q-0.84375 0 -1.453125 0.53125q-0.609375 0.53125 -0.609375 2.03125l0 4.25l-1.328125 0zm12.3949585 0l0 -10.734375l4.046875 0q1.078125 0 1.640625 0.09375q0.78125 0.140625 1.3125 0.515625q0.546875 0.359375 0.875 1.03125q0.328125 0.65625 0.328125 1.46875q0 1.359375 -0.875 2.3125q-0.875 0.953125 -3.15625 0.953125l-2.75 0l0 4.359375l-1.421875 0zm1.421875 -5.625l2.78125 0q1.375 0 1.953125 -0.515625q0.578125 -0.515625 0.578125 -1.453125q0 -0.671875 -0.34375 -1.140625q-0.34375 -0.484375 -0.890625 -0.640625q-0.359375 -0.09375 -1.328125 -0.09375l-2.75 0l0 3.84375zm8.166229 5.625l0 -7.78125l1.1875 0l0 1.1875q0.453125 -0.828125 0.84375 -1.09375q0.390625 -0.265625 0.84375 -0.265625q0.671875 0 1.359375 0.421875l-0.453125 1.21875q-0.484375 -0.28125 -0.96875 -0.28125q-0.4375 0 -0.78125 0.265625q-0.34375 0.25 -0.484375 0.71875q-0.21875 0.703125 -0.21875 1.53125l0 4.078125l-1.328125 0zm4.9118958 -9.21875l0 -1.515625l1.3125 0l0 1.515625l-1.3125 0zm0 9.21875l0 -7.78125l1.3125 0l0 7.78125l-1.3125 0zm3.2405243 0l0 -7.78125l1.1875 0l0 1.109375q0.859375 -1.28125 2.484375 -1.28125q0.703125 0 1.28125 0.25q0.59375 0.25 0.890625 0.671875q0.296875 0.40625 0.40625 0.96875q0.078125 0.359375 0.078125 1.28125l0 4.78125l-1.328125 0l0 -4.734375q0 -0.796875 -0.15625 -1.1875q-0.140625 -0.40625 -0.53125 -0.640625q-0.390625 -0.25 -0.921875 -0.25q-0.84375 0 -1.453125 0.53125q-0.609375 0.53125 -0.609375 2.03125l0 4.25l-1.328125 0zm11.041733 -1.171875l0.1875 1.15625q-0.5625 0.125 -1.0 0.125q-0.71875 0 -1.125 -0.234375q-0.390625 -0.234375 -0.546875 -0.59375q-0.15625 -0.375 -0.15625 -1.5625l0 -4.46875l-0.96875 0l0 -1.03125l0.96875 0l0 -1.921875l1.3125 -0.796875l0 2.71875l1.328125 0l0 1.03125l-1.328125 0l0 4.546875q0 0.5625 0.0625 0.734375q0.078125 0.15625 0.234375 0.25q0.15625 0.09375 0.4375 0.09375q0.234375 0 0.59375 -0.046875zm5.3783264 1.171875l0 -10.734375l2.140625 0l2.546875 7.59375q0.34375 1.0625 0.515625 1.59375q0.171875 -0.578125 0.56248474 -1.71875l2.578125 -7.46875l1.90625 0l0 10.734375l-1.375 0l0 -8.984375l-3.109375 8.984375l-1.2812347 0l-3.109375 -9.140625l0 9.140625l-1.375 0zm11.5993805 -3.890625q0 -2.15625 1.203125 -3.203125q1.0 -0.859375 2.4375 -0.859375q1.609375 0 2.625 1.046875q1.015625 1.046875 1.015625 2.90625q0 1.5 -0.453125 2.359375q-0.4375 0.859375 -1.3125 1.34375q-0.859375 0.46875 -1.875 0.46875q-1.625 0 -2.640625 -1.046875q-1.0 -1.046875 -1.0 -3.015625zm1.359375 0q0 1.5 0.640625 2.25q0.65625 0.734375 1.640625 0.734375q0.984375 0 1.640625 -0.75q0.65625 -0.75 0.65625 -2.28125q0 -1.4375 -0.65625 -2.171875q-0.65625 -0.75 -1.640625 -0.75q-0.984375 0 -1.640625 0.734375q-0.640625 0.734375 -0.640625 2.234375zm12.322998 3.890625l0 -0.984375q-0.734375 1.15625 -2.171875 1.15625q-0.921875 0 -1.703125 -0.5q-0.78125 -0.515625 -1.21875 -1.4375q-0.421875 -0.921875 -0.421875 -2.109375q0 -1.171875 0.390625 -2.109375q0.390625 -0.953125 1.15625 -1.453125q0.78125 -0.515625 1.734375 -0.515625q0.703125 0 1.25 0.296875q0.5625 0.296875 0.90625 0.765625l0 -3.84375l1.3125 0l0 10.734375l-1.234375 0zm-4.15625 -3.875q0 1.484375 0.625 2.234375q0.625 0.734375 1.484375 0.734375q0.859375 0 1.46875 -0.703125q0.609375 -0.71875 0.609375 -2.15625q0 -1.609375 -0.625 -2.34375q-0.609375 -0.75 -1.515625 -0.75q-0.875 0 -1.46875 0.71875q-0.578125 0.71875 -0.578125 2.265625zm12.588593 1.375l1.359375 0.15625q-0.3125 1.203125 -1.1875 1.859375q-0.875 0.65625 -2.234375 0.65625q-1.703125 0 -2.703125 -1.046875q-1.0 -1.046875 -1.0 -2.953125q0 -1.953125 1.015625 -3.03125q1.015625 -1.09375 2.625 -1.09375q1.5625 0 2.546875 1.0625q0.984375 1.0625 0.984375 2.984375q0 0.125 0 0.359375l-5.8125 0q0.078125 1.28125 0.71875 1.96875q0.65625 0.671875 1.640625 0.671875q0.71875 0 1.234375 -0.375q0.515625 -0.390625 0.8125 -1.21875zm-4.328125 -2.140625l4.34375 0q-0.09375 -0.984375 -0.5 -1.46875q-0.625 -0.765625 -1.625 -0.765625q-0.921875 0 -1.546875 0.609375q-0.609375 0.609375 -0.671875 1.625zm10.9574585 -0.59375q0 -2.671875 1.4375 -4.171875q1.4375 -1.515625 3.703125 -1.515625q1.5 0 2.6875 0.71875q1.1875 0.703125 1.8125 1.96875q0.640625 1.265625 0.640625 2.875q0 1.640625 -0.671875 2.9375q-0.65625 1.28125 -1.859375 1.953125q-1.203125 0.65625 -2.609375 0.65625q-1.515625 0 -2.71875 -0.734375q-1.1875 -0.734375 -1.8125 -2.0q-0.609375 -1.265625 -0.609375 -2.6875zm1.46875 0.03125q0 1.9375 1.046875 3.0625q1.046875 1.109375 2.625 1.109375q1.59375 0 2.625 -1.125q1.046875 -1.125 1.046875 -3.203125q0 -1.3125 -0.453125 -2.28125q-0.4375 -0.984375 -1.296875 -1.515625q-0.84375 -0.546875 -1.90625 -0.546875q-1.515625 0 -2.609375 1.046875q-1.078125 1.03125 -1.078125 3.453125zm10.196991 5.203125l0 -7.78125l1.1875 0l0 1.109375q0.859375 -1.28125 2.484375 -1.28125q0.703125 0 1.28125 0.25q0.59375 0.25 0.890625 0.671875q0.296875 0.40625 0.40625 0.96875q0.078125 0.359375 0.078125 1.28125l0 4.78125l-1.328125 0l0 -4.734375q0 -0.796875 -0.15625 -1.1875q-0.140625 -0.40625 -0.53125 -0.640625q-0.390625 -0.25 -0.921875 -0.25q-0.84375 0 -1.453125 0.53125q-0.609375 0.53125 -0.609375 2.03125l0 4.25l-1.328125 0z" fill-rule="nonzero"></path><path fill="#000000" fill-opacity="0.0" d="m364.59317 141.56693l206.33072 0l0 43.086624l-206.33072 0z" fill-rule="evenodd"></path><path fill="#000000" d="m381.7963 153.91255l1.421875 0l0 6.203125q0 1.609375 -0.375 2.5625q-0.359375 0.953125 -1.3125 1.5625q-0.953125 0.59375 -2.515625 0.59375q-1.5 0 -2.46875 -0.515625q-0.953125 -0.53125 -1.375 -1.515625q-0.40625 -0.984375 -0.40625 -2.6875l0 -6.203125l1.421875 0l0 6.1875q0 1.40625 0.265625 2.078125q0.265625 0.65625 0.890625 1.015625q0.640625 0.359375 1.546875 0.359375q1.578125 0 2.234375 -0.703125q0.671875 -0.71875 0.671875 -2.75l0 -6.1875zm3.3655396 13.71875l0 -10.765625l1.203125 0l0 1.015625q0.421875 -0.59375 0.953125 -0.890625q0.546875 -0.296875 1.3125 -0.296875q0.984375 0 1.75 0.515625q0.765625 0.515625 1.140625 1.453125q0.390625 0.921875 0.390625 2.03125q0 1.203125 -0.421875 2.15625q-0.421875 0.953125 -1.25 1.46875q-0.8125 0.5 -1.71875 0.5q-0.65625 0 -1.1875 -0.265625q-0.515625 -0.28125 -0.84375 -0.71875l0 3.796875l-1.328125 0zm1.203125 -6.828125q0 1.5 0.609375 2.21875q0.609375 0.71875 1.46875 0.71875q0.875 0 1.5 -0.734375q0.625 -0.75 0.625 -2.3125q0 -1.484375 -0.609375 -2.21875q-0.609375 -0.75 -1.453125 -0.75q-0.84375 0 -1.5 0.796875q-0.640625 0.78125 -0.640625 2.28125zm6.4323425 1.515625l1.296875 -0.203125q0.109375 0.78125 0.609375 1.203125q0.5 0.421875 1.40625 0.421875q0.90625 0 1.34375 -0.359375q0.4375 -0.375 0.4375 -0.875q0 -0.453125 -0.390625 -0.703125q-0.265625 -0.1875 -1.34375 -0.453125q-1.453125 -0.359375 -2.015625 -0.625q-0.546875 -0.28125 -0.84375 -0.75q-0.28125 -0.46875 -0.28125 -1.046875q0 -0.515625 0.234375 -0.953125q0.234375 -0.453125 0.640625 -0.734375q0.3125 -0.234375 0.84375 -0.390625q0.53125 -0.15625 1.140625 -0.15625q0.90625 0 1.59375 0.265625q0.703125 0.265625 1.03125 0.71875q0.328125 0.4375 0.453125 1.203125l-1.28125 0.171875q-0.09375 -0.609375 -0.515625 -0.9375q-0.421875 -0.34375 -1.1875 -0.34375q-0.90625 0 -1.296875 0.3125q-0.390625 0.296875 -0.390625 0.703125q0 0.25 0.15625 0.453125q0.171875 0.21875 0.515625 0.359375q0.1875 0.0625 1.15625 0.328125q1.40625 0.375 1.953125 0.609375q0.5625 0.234375 0.875 0.703125q0.3125 0.453125 0.3125 1.125q0 0.65625 -0.390625 1.234375q-0.375 0.578125 -1.109375 0.90625q-0.71875 0.3125 -1.640625 0.3125q-1.515625 0 -2.3125 -0.625q-0.78125 -0.625 -1.0 -1.875zm7.859375 -6.890625l0 -1.515625l1.3125 0l0 1.515625l-1.3125 0zm0 9.21875l0 -7.78125l1.3125 0l0 7.78125l-1.3125 0zm8.287415 0l0 -0.984375q-0.734375 1.15625 -2.171875 1.15625q-0.921875 0 -1.703125 -0.5q-0.78125 -0.515625 -1.21875 -1.4375q-0.421875 -0.921875 -0.421875 -2.109375q0 -1.171875 0.390625 -2.109375q0.390625 -0.953125 1.15625 -1.453125q0.78125 -0.515625 1.734375 -0.515625q0.703125 0 1.25 0.296875q0.5625 0.296875 0.90625 0.765625l0 -3.84375l1.3125 0l0 10.734375l-1.234375 0zm-4.15625 -3.875q0 1.484375 0.625 2.234375q0.625 0.734375 1.484375 0.734375q0.859375 0 1.46875 -0.703125q0.609375 -0.71875 0.609375 -2.15625q0 -1.609375 -0.625 -2.34375q-0.609375 -0.75 -1.515625 -0.75q-0.875 0 -1.46875 0.71875q-0.578125 0.71875 -0.578125 2.265625zm12.588593 1.375l1.359375 0.15625q-0.3125 1.203125 -1.1875 1.859375q-0.875 0.65625 -2.234375 0.65625q-1.703125 0 -2.703125 -1.046875q-1.0 -1.046875 -1.0 -2.953125q0 -1.953125 1.015625 -3.03125q1.015625 -1.09375 2.625 -1.09375q1.5625 0 2.546875 1.0625q0.984375 1.0625 0.984375 2.984375q0 0.125 0 0.359375l-5.8125 0q0.078125 1.28125 0.71875 1.96875q0.65625 0.671875 1.640625 0.671875q0.71875 0 1.234375 -0.375q0.515625 -0.390625 0.8125 -1.21875zm-4.328125 -2.140625l4.34375 0q-0.09375 -0.984375 -0.5 -1.46875q-0.625 -0.765625 -1.625 -0.765625q-0.921875 0 -1.546875 0.609375q-0.609375 0.609375 -0.671875 1.625zm6.635498 1.421875l0 -1.328125l4.0625 0l0 1.328125l-4.0625 0zm5.5681458 3.21875l0 -10.734375l3.703125 0q1.25 0 1.90625 0.15625q0.921875 0.203125 1.578125 0.765625q0.84375 0.71875 1.265625 1.84375q0.421875 1.109375 0.421875 2.546875q0 1.21875 -0.28125 2.171875q-0.28125 0.9375 -0.734375 1.5625q-0.453125 0.609375 -0.984375 0.96875q-0.53125 0.359375 -1.28125 0.546875q-0.75 0.171875 -1.71875 0.171875l-3.875 0zm1.421875 -1.265625l2.296875 0q1.0625 0 1.65625 -0.1875q0.609375 -0.203125 0.96875 -0.5625q0.5 -0.515625 0.78125 -1.359375q0.28125 -0.859375 0.28125 -2.078125q0 -1.6875 -0.546875 -2.578125q-0.546875 -0.90625 -1.34375 -1.21875q-0.578125 -0.21875 -1.84375 -0.21875l-2.25 0l0 8.203125zm8.506134 -2.625q0 -2.15625 1.203125 -3.203125q1.0 -0.859375 2.4375 -0.859375q1.609375 0 2.625 1.046875q1.015625 1.046875 1.015625 2.90625q0 1.5 -0.453125 2.359375q-0.4375 0.859375 -1.3125 1.34375q-0.859375 0.46875 -1.875 0.46875q-1.625 0 -2.640625 -1.046875q-1.0 -1.046875 -1.0 -3.015625zm1.359375 0q0 1.5 0.640625 2.25q0.65625 0.734375 1.640625 0.734375q0.984375 0 1.640625 -0.75q0.65625 -0.75 0.65625 -2.28125q0 -1.4375 -0.65625 -2.171875q-0.65625 -0.75 -1.640625 -0.75q-0.984375 0 -1.640625 0.734375q-0.640625 0.734375 -0.640625 2.234375zm8.713623 3.890625l-2.375 -7.78125l1.359375 0l1.234375 4.5l0.46875 1.65625q0.03125 -0.125 0.40625 -1.59375l1.234375 -4.5625l1.34375 0l1.171875 4.515625l0.390625 1.484375l0.4375 -1.5l1.34375 -4.5l1.28125 0l-2.4375 7.78125l-1.359375 0l-1.25 -4.65625l-0.296875 -1.328125l-1.578125 5.984375l-1.375 0zm9.146759 0l0 -7.78125l1.1875 0l0 1.109375q0.859375 -1.28125 2.484375 -1.28125q0.703125 0 1.28125 0.25q0.59375 0.25 0.890625 0.671875q0.296875 0.40625 0.40625 0.96875q0.078125 0.359375 0.078125 1.28125l0 4.78125l-1.328125 0l0 -4.734375q0 -0.796875 -0.15625 -1.1875q-0.140625 -0.40625 -0.53125 -0.640625q-0.390625 -0.25 -0.921875 -0.25q-0.84375 0 -1.453125 0.53125q-0.609375 0.53125 -0.609375 2.03125l0 4.25l-1.328125 0zm12.3949585 0l0 -10.734375l4.046875 0q1.078125 0 1.640625 0.09375q0.78125 0.140625 1.3125 0.515625q0.546875 0.359375 0.875 1.03125q0.328125 0.65625 0.328125 1.46875q0 1.359375 -0.875 2.3125q-0.875 0.953125 -3.15625 0.953125l-2.75 0l0 4.359375l-1.421875 0zm1.421875 -5.625l2.78125 0q1.375 0 1.953125 -0.515625q0.578125 -0.515625 0.578125 -1.453125q0 -0.671875 -0.34375 -1.140625q-0.34375 -0.484375 -0.890625 -0.640625q-0.359375 -0.09375 -1.328125 -0.09375l-2.75 0l0 3.84375zm8.166229 5.625l0 -7.78125l1.1875 0l0 1.1875q0.453125 -0.828125 0.84375 -1.09375q0.390625 -0.265625 0.84375 -0.265625q0.671875 0 1.359375 0.421875l-0.453125 1.21875q-0.484375 -0.28125 -0.96875 -0.28125q-0.4375 0 -0.78125 0.265625q-0.34375 0.25 -0.484375 0.71875q-0.21875 0.703125 -0.21875 1.53125l0 4.078125l-1.328125 0zm4.9118958 -9.21875l0 -1.515625l1.3125 0l0 1.515625l-1.3125 0zm0 9.21875l0 -7.78125l1.3125 0l0 7.78125l-1.3125 0zm3.2405396 0l0 -7.78125l1.1875 0l0 1.109375q0.859375 -1.28125 2.484375 -1.28125q0.703125 0 1.28125 0.25q0.59375 0.25 0.890625 0.671875q0.296875 0.40625 0.40625 0.96875q0.078125 0.359375 0.078125 1.28125l0 4.78125l-1.328125 0l0 -4.734375q0 -0.796875 -0.15625 -1.1875q-0.140625 -0.40625 -0.53125 -0.640625q-0.390625 -0.25 -0.921875 -0.25q-0.84375 0 -1.453125 0.53125q-0.609375 0.53125 -0.609375 2.03125l0 4.25l-1.328125 0zm11.041718 -1.171875l0.1875 1.15625q-0.5625 0.125 -1.0 0.125q-0.71875 0 -1.125 -0.234375q-0.390625 -0.234375 -0.546875 -0.59375q-0.15625 -0.375 -0.15625 -1.5625l0 -4.46875l-0.96875 0l0 -1.03125l0.96875 0l0 -1.921875l1.3125 -0.796875l0 2.71875l1.328125 0l0 1.03125l-1.328125 0l0 4.546875q0 0.5625 0.0625 0.734375q0.078125 0.15625 0.234375 0.25q0.15625 0.09375 0.4375 0.09375q0.234375 0 0.59375 -0.046875zm5.3783264 1.171875l0 -10.734375l2.140625 0l2.546875 7.59375q0.34375 1.0625 0.515625 1.59375q0.171875 -0.578125 0.5625 -1.71875l2.578125 -7.46875l1.90625 0l0 10.734375l-1.375 0l0 -8.984375l-3.109375 8.984375l-1.28125 0l-3.109375 -9.140625l0 9.140625l-1.375 0zm11.599426 -3.890625q0 -2.15625 1.203125 -3.203125q1.0 -0.859375 2.4375 -0.859375q1.609375 0 2.625 1.046875q1.015625 1.046875 1.015625 2.90625q0 1.5 -0.453125 2.359375q-0.4375 0.859375 -1.3125 1.34375q-0.859375 0.46875 -1.875 0.46875q-1.625 0 -2.640625 -1.046875q-1.0 -1.046875 -1.0 -3.015625zm1.359375 0q0 1.5 0.640625 2.25q0.65625 0.734375 1.640625 0.734375q0.984375 0 1.640625 -0.75q0.65625 -0.75 0.65625 -2.28125q0 -1.4375 -0.65625 -2.171875q-0.65625 -0.75 -1.640625 -0.75q-0.984375 0 -1.640625 0.734375q-0.640625 0.734375 -0.640625 2.234375zm12.322937 3.890625l0 -0.984375q-0.734375 1.15625 -2.171875 1.15625q-0.921875 0 -1.703125 -0.5q-0.78125 -0.515625 -1.21875 -1.4375q-0.421875 -0.921875 -0.421875 -2.109375q0 -1.171875 0.390625 -2.109375q0.390625 -0.953125 1.15625 -1.453125q0.78125 -0.515625 1.734375 -0.515625q0.703125 0 1.25 0.296875q0.5625 0.296875 0.90625 0.765625l0 -3.84375l1.3125 0l0 10.734375l-1.234375 0zm-4.15625 -3.875q0 1.484375 0.625 2.234375q0.625 0.734375 1.484375 0.734375q0.859375 0 1.46875 -0.703125q0.609375 -0.71875 0.609375 -2.15625q0 -1.609375 -0.625 -2.34375q-0.609375 -0.75 -1.515625 -0.75q-0.875 0 -1.46875 0.71875q-0.578125 0.71875 -0.578125 2.265625zm12.588623 1.375l1.359375 0.15625q-0.3125 1.203125 -1.1875 1.859375q-0.875 0.65625 -2.234375 0.65625q-1.703125 0 -2.703125 -1.046875q-1.0 -1.046875 -1.0 -2.953125q0 -1.953125 1.015625 -3.03125q1.015625 -1.09375 2.625 -1.09375q1.5625 0 2.546875 1.0625q0.984375 1.0625 0.984375 2.984375q0 0.125 0 0.359375l-5.8125 0q0.078125 1.28125 0.71875 1.96875q0.65625 0.671875 1.640625 0.671875q0.71875 0 1.234375 -0.375q0.515625 -0.390625 0.8125 -1.21875zm-4.328125 -2.140625l4.34375 0q-0.09375 -0.984375 -0.5 -1.46875q-0.625 -0.765625 -1.625 -0.765625q-0.921875 0 -1.546875 0.609375q-0.609375 0.609375 -0.671875 1.625zm10.9574585 -0.59375q0 -2.671875 1.4375 -4.171875q1.4375 -1.515625 3.703125 -1.515625q1.5 0 2.6875 0.71875q1.1875 0.703125 1.8125 1.96875q0.640625 1.265625 0.640625 2.875q0 1.640625 -0.671875 2.9375q-0.65625 1.28125 -1.859375 1.953125q-1.203125 0.65625 -2.609375 0.65625q-1.515625 0 -2.71875 -0.734375q-1.1875 -0.734375 -1.8125 -2.0q-0.609375 -1.265625 -0.609375 -2.6875zm1.46875 0.03125q0 1.9375 1.046875 3.0625q1.046875 1.109375 2.625 1.109375q1.59375 0 2.625 -1.125q1.046875 -1.125 1.046875 -3.203125q0 -1.3125 -0.453125 -2.28125q-0.4375 -0.984375 -1.296875 -1.515625q-0.84375 -0.546875 -1.90625 -0.546875q-1.515625 0 -2.609375 1.046875q-1.078125 1.03125 -1.078125 3.453125zm10.50946 5.203125l0 -6.75l-1.15625 0l0 -1.03125l1.15625 0l0 -0.828125q0 -0.78125 0.140625 -1.15625q0.203125 -0.515625 0.671875 -0.828125q0.484375 -0.328125 1.34375 -0.328125q0.5625 0 1.234375 0.140625l-0.203125 1.140625q-0.40625 -0.078125 -0.765625 -0.078125q-0.609375 0 -0.859375 0.265625q-0.25 0.25 -0.25 0.953125l0 0.71875l1.515625 0l0 1.03125l-1.515625 0l0 6.75l-1.3125 0zm4.0720215 0l0 -6.75l-1.15625 0l0 -1.03125l1.15625 0l0 -0.828125q0 -0.78125 0.140625 -1.15625q0.203125 -0.515625 0.671875 -0.828125q0.484375 -0.328125 1.34375 -0.328125q0.5625 0 1.234375 0.140625l-0.203125 1.140625q-0.40625 -0.078125 -0.765625 -0.078125q-0.609375 0 -0.859375 0.265625q-0.25 0.25 -0.25 0.953125l0 0.71875l1.515625 0l0 1.03125l-1.515625 0l0 6.75l-1.3125 0z" fill-rule="nonzero"></path><path fill="#000000" fill-opacity="0.0" d="m238.40683 274.4567l206.33069 0l0 51.08661l-206.33069 0z" fill-rule="evenodd"></path><path fill="#000000" d="m248.87558 301.37668l0 -13.59375l5.125 0q1.359375 0 2.078125 0.125q1.0 0.171875 1.671875 0.640625q0.671875 0.46875 1.078125 1.3125q0.421875 0.84375 0.421875 1.84375q0 1.734375 -1.109375 2.9375q-1.09375 1.203125 -3.984375 1.203125l-3.484375 0l0 5.53125l-1.796875 0zm1.796875 -7.140625l3.515625 0q1.75 0 2.46875 -0.640625q0.734375 -0.65625 0.734375 -1.828125q0 -0.859375 -0.4375 -1.46875q-0.421875 -0.609375 -1.125 -0.796875q-0.453125 -0.125 -1.671875 -0.125l-3.484375 0l0 4.859375zm16.865448 5.921875q-0.9375 0.796875 -1.796875 1.125q-0.859375 0.3125 -1.84375 0.3125q-1.609375 0 -2.484375 -0.78125q-0.875 -0.796875 -0.875 -2.03125q0 -0.734375 0.328125 -1.328125q0.328125 -0.59375 0.859375 -0.953125q0.53125 -0.359375 1.203125 -0.546875q0.5 -0.140625 1.484375 -0.25q2.03125 -0.25 2.984375 -0.578125q0 -0.34375 0 -0.4375q0 -1.015625 -0.46875 -1.4375q-0.640625 -0.5625 -1.90625 -0.5625q-1.171875 0 -1.734375 0.40625q-0.5625 0.40625 -0.828125 1.46875l-1.640625 -0.234375q0.234375 -1.046875 0.734375 -1.6875q0.515625 -0.640625 1.46875 -0.984375q0.96875 -0.359375 2.25 -0.359375q1.265625 0 2.046875 0.296875q0.78125 0.296875 1.15625 0.75q0.375 0.453125 0.515625 1.140625q0.09375 0.421875 0.09375 1.53125l0 2.234375q0 2.328125 0.09375 2.953125q0.109375 0.609375 0.4375 1.171875l-1.75 0q-0.265625 -0.515625 -0.328125 -1.21875zm-0.140625 -3.71875q-0.90625 0.359375 -2.734375 0.625q-1.03125 0.140625 -1.453125 0.328125q-0.421875 0.1875 -0.65625 0.546875q-0.234375 0.359375 -0.234375 0.796875q0 0.671875 0.5 1.125q0.515625 0.4375 1.484375 0.4375q0.96875 0 1.71875 -0.421875q0.75 -0.4375 1.109375 -1.15625q0.265625 -0.578125 0.265625 -1.671875l0 -0.609375zm4.078827 8.71875l0 -13.640625l1.53125 0l0 1.28125q0.53125 -0.75 1.203125 -1.125q0.6875 -0.375 1.640625 -0.375q1.265625 0 2.234375 0.65625q0.96875 0.640625 1.453125 1.828125q0.5 1.1875 0.5 2.59375q0 1.515625 -0.546875 2.734375q-0.546875 1.203125 -1.578125 1.84375q-1.03125 0.640625 -2.171875 0.640625q-0.84375 0 -1.515625 -0.34375q-0.65625 -0.359375 -1.078125 -0.890625l0 4.796875l-1.671875 0zm1.515625 -8.65625q0 1.90625 0.765625 2.8125q0.78125 0.90625 1.875 0.90625q1.109375 0 1.890625 -0.9375q0.796875 -0.9375 0.796875 -2.921875q0 -1.875 -0.78125 -2.8125q-0.765625 -0.9375 -1.84375 -0.9375q-1.0625 0 -1.890625 1.0q-0.8125 1.0 -0.8125 2.890625zm15.610107 1.703125l1.71875 0.21875q-0.40625 1.5 -1.515625 2.34375q-1.09375 0.828125 -2.8125 0.828125q-2.15625 0 -3.421875 -1.328125q-1.265625 -1.328125 -1.265625 -3.734375q0 -2.484375 1.265625 -3.859375q1.28125 -1.375 3.328125 -1.375q1.984375 0 3.234375 1.34375q1.25 1.34375 1.25 3.796875q0 0.140625 -0.015625 0.4375l-7.34375 0q0.09375 1.625 0.921875 2.484375q0.828125 0.859375 2.0625 0.859375q0.90625 0 1.546875 -0.46875q0.65625 -0.484375 1.046875 -1.546875zm-5.484375 -2.703125l5.5 0q-0.109375 -1.234375 -0.625 -1.859375q-0.796875 -0.96875 -2.078125 -0.96875q-1.140625 0 -1.9375 0.78125q-0.78125 0.765625 -0.859375 2.046875zm9.094452 5.875l0 -9.859375l1.5 0l0 1.5q0.578125 -1.046875 1.0625 -1.375q0.484375 -0.34375 1.078125 -0.34375q0.84375 0 1.71875 0.546875l-0.578125 1.546875q-0.609375 -0.359375 -1.234375 -0.359375q-0.546875 0 -0.984375 0.328125q-0.421875 0.328125 -0.609375 0.90625q-0.28125 0.890625 -0.28125 1.953125l0 5.15625l-1.671875 0zm11.724121 0l0 -13.59375l9.171875 0l0 1.59375l-7.375 0l0 4.21875l6.375 0l0 1.609375l-6.375 0l0 6.171875l-1.796875 0zm17.833466 -3.171875l1.71875 0.21875q-0.40625 1.5 -1.515625 2.34375q-1.09375 0.828125 -2.8125 0.828125q-2.15625 0 -3.421875 -1.328125q-1.265625 -1.328125 -1.265625 -3.734375q0 -2.484375 1.265625 -3.859375q1.28125 -1.375 3.328125 -1.375q1.984375 0 3.234375 1.34375q1.25 1.34375 1.25 3.796875q0 0.140625 -0.015625 0.4375l-7.34375 0q0.09375 1.625 0.921875 2.484375q0.828125 0.859375 2.0625 0.859375q0.90625 0 1.546875 -0.46875q0.65625 -0.484375 1.046875 -1.546875zm-5.484375 -2.703125l5.5 0q-0.109375 -1.234375 -0.625 -1.859375q-0.796875 -0.96875 -2.078125 -0.96875q-1.140625 0 -1.9375 0.78125q-0.78125 0.765625 -0.859375 2.046875zm15.860107 2.703125l1.71875 0.21875q-0.40625 1.5 -1.515625 2.34375q-1.09375 0.828125 -2.8125 0.828125q-2.15625 0 -3.421875 -1.328125q-1.265625 -1.328125 -1.265625 -3.734375q0 -2.484375 1.265625 -3.859375q1.28125 -1.375 3.328125 -1.375q1.984375 0 3.234375 1.34375q1.25 1.34375 1.25 3.796875q0 0.140625 -0.015625 0.4375l-7.34375 0q0.09375 1.625 0.921875 2.484375q0.828125 0.859375 2.0625 0.859375q0.90625 0 1.546875 -0.46875q0.65625 -0.484375 1.046875 -1.546875zm-5.484375 -2.703125l5.5 0q-0.109375 -1.234375 -0.625 -1.859375q-0.796875 -0.96875 -2.078125 -0.96875q-1.140625 0 -1.9375 0.78125q-0.78125 0.765625 -0.859375 2.046875zm15.500702 5.875l0 -1.25q-0.9375 1.46875 -2.75 1.46875q-1.171875 0 -2.171875 -0.640625q-0.984375 -0.65625 -1.53125 -1.8125q-0.53125 -1.171875 -0.53125 -2.6875q0 -1.46875 0.484375 -2.671875q0.5 -1.203125 1.46875 -1.84375q0.984375 -0.640625 2.203125 -0.640625q0.890625 0 1.578125 0.375q0.703125 0.375 1.140625 0.984375l0 -4.875l1.65625 0l0 13.59375l-1.546875 0zm-5.28125 -4.921875q0 1.890625 0.796875 2.828125q0.8125 0.9375 1.890625 0.9375q1.09375 0 1.859375 -0.890625q0.765625 -0.890625 0.765625 -2.734375q0 -2.015625 -0.78125 -2.953125q-0.78125 -0.953125 -1.921875 -0.953125q-1.109375 0 -1.859375 0.90625q-0.75 0.90625 -0.75 2.859375zm14.668396 4.921875l0 -13.59375l4.6875 0q1.578125 0 2.421875 0.1875q1.15625 0.265625 1.984375 0.96875q1.078125 0.921875 1.609375 2.34375q0.53125 1.40625 0.53125 3.21875q0 1.546875 -0.359375 2.75q-0.359375 1.1875 -0.921875 1.984375q-0.5625 0.78125 -1.234375 1.234375q-0.671875 0.4375 -1.625 0.671875q-0.953125 0.234375 -2.1875 0.234375l-4.90625 0zm1.796875 -1.609375l2.90625 0q1.34375 0 2.109375 -0.25q0.765625 -0.25 1.21875 -0.703125q0.640625 -0.640625 1.0 -1.71875q0.359375 -1.078125 0.359375 -2.625q0 -2.125 -0.703125 -3.265625q-0.703125 -1.15625 -1.703125 -1.546875q-0.71875 -0.28125 -2.328125 -0.28125l-2.859375 0l0 10.390625zm11.472961 -10.078125l0 -1.90625l1.671875 0l0 1.90625l-1.671875 0zm0 11.6875l0 -9.859375l1.671875 0l0 9.859375l-1.671875 0zm4.113556 0l0 -9.859375l1.5 0l0 1.5q0.578125 -1.046875 1.0625 -1.375q0.484375 -0.34375 1.078125 -0.34375q0.84375 0 1.71875 0.546875l-0.578125 1.546875q-0.609375 -0.359375 -1.234375 -0.359375q-0.546875 0 -0.984375 0.328125q-0.421875 0.328125 -0.609375 0.90625q-0.28125 0.890625 -0.28125 1.953125l0 5.15625l-1.671875 0zm12.978302 -3.171875l1.71875 0.21875q-0.40625 1.5 -1.515625 2.34375q-1.09375 0.828125 -2.8125 0.828125q-2.15625 0 -3.421875 -1.328125q-1.265625 -1.328125 -1.265625 -3.734375q0 -2.484375 1.265625 -3.859375q1.28125 -1.375 3.328125 -1.375q1.984375 0 3.234375 1.34375q1.25 1.34375 1.25 3.796875q0 0.140625 -0.015625 0.4375l-7.34375 0q0.09375 1.625 0.921875 2.484375q0.828125 0.859375 2.0625 0.859375q0.90625 0 1.546875 -0.46875q0.65625 -0.484375 1.046875 -1.546875zm-5.484375 -2.703125l5.5 0q-0.109375 -1.234375 -0.625 -1.859375q-0.796875 -0.96875 -2.078125 -0.96875q-1.140625 0 -1.9375 0.78125q-0.78125 0.765625 -0.859375 2.046875zm15.547607 2.265625l1.640625 0.21875q-0.265625 1.6875 -1.375 2.65625q-1.109375 0.953125 -2.734375 0.953125q-2.015625 0 -3.25 -1.3125q-1.21875 -1.328125 -1.21875 -3.796875q0 -1.59375 0.515625 -2.78125q0.53125 -1.203125 1.609375 -1.796875q1.09375 -0.609375 2.359375 -0.609375q1.609375 0 2.625 0.8125q1.015625 0.8125 1.3125 2.3125l-1.625 0.25q-0.234375 -1.0 -0.828125 -1.5q-0.59375 -0.5 -1.421875 -0.5q-1.265625 0 -2.0625 0.90625q-0.78125 0.90625 -0.78125 2.859375q0 1.984375 0.765625 2.890625q0.765625 0.890625 1.984375 0.890625q0.984375 0 1.640625 -0.59375q0.65625 -0.609375 0.84375 -1.859375zm6.546875 2.109375l0.234375 1.484375q-0.703125 0.140625 -1.265625 0.140625q-0.90625 0 -1.40625 -0.28125q-0.5 -0.296875 -0.703125 -0.75q-0.203125 -0.46875 -0.203125 -1.984375l0 -5.65625l-1.234375 0l0 -1.3125l1.234375 0l0 -2.4375l1.65625 -1.0l0 3.4375l1.6875 0l0 1.3125l-1.6875 0l0 5.75q0 0.71875 0.078125 0.921875q0.09375 0.203125 0.296875 0.328125q0.203125 0.125 0.578125 0.125q0.265625 0 0.734375 -0.078125zm1.5426636 -10.1875l0 -1.90625l1.671875 0l0 1.90625l-1.671875 0zm0 11.6875l0 -9.859375l1.671875 0l0 9.859375l-1.671875 0zm3.5042114 -4.921875q0 -2.734375 1.53125 -4.0625q1.265625 -1.09375 3.09375 -1.09375q2.03125 0 3.3125 1.34375q1.296875 1.328125 1.296875 3.671875q0 1.90625 -0.578125 3.0q-0.5625 1.078125 -1.65625 1.6875q-1.078125 0.59375 -2.375 0.59375q-2.0625 0 -3.34375 -1.328125q-1.28125 -1.328125 -1.28125 -3.8125zm1.71875 0q0 1.890625 0.828125 2.828125q0.828125 0.9375 2.078125 0.9375q1.25 0 2.0625 -0.9375q0.828125 -0.953125 0.828125 -2.890625q0 -1.828125 -0.828125 -2.765625q-0.828125 -0.9375 -2.0625 -0.9375q-1.25 0 -2.078125 0.9375q-0.828125 0.9375 -0.828125 2.828125zm9.281952 4.921875l0 -9.859375l1.5 0l0 1.40625q1.09375 -1.625 3.140625 -1.625q0.890625 0 1.640625 0.328125q0.75 0.3125 1.109375 0.84375q0.375 0.515625 0.53125 1.21875q0.09375 0.46875 0.09375 1.625l0 6.0625l-1.671875 0l0 -6.0q0 -1.015625 -0.203125 -1.515625q-0.1875 -0.515625 -0.6875 -0.8125q-0.5 -0.296875 -1.171875 -0.296875q-1.0625 0 -1.84375 0.671875q-0.765625 0.671875 -0.765625 2.578125l0 5.375l-1.671875 0z" fill-rule="nonzero"></path><path fill="#000000" fill-opacity="0.0" d="m341.57217 218.70866l0 55.74803" fill-rule="evenodd"></path><path stroke="#000000" stroke-width="1.0" stroke-linejoin="round" stroke-linecap="butt" d="m341.57217 218.70866l0 49.74803" fill-rule="evenodd"></path><path fill="#000000" stroke="#000000" stroke-width="1.0" stroke-linecap="butt" d="m339.92044 268.4567l1.6517334 4.538086l1.6517334 -4.538086z" fill-rule="evenodd"></path></g></svg>

